<svg width="14" height="14" viewBox="0 0 14 14" fill="none" xmlns="http://www.w3.org/2000/svg">
<path d="M5.58775 3.68007e-07C4.71319 0.000467713 3.85095 0.206055 3.07031 0.600239C2.28967 0.994424 1.61241 1.56621 1.09297 2.26964C0.573533 2.97307 0.226398 3.78853 0.0794674 4.65047C-0.0674629 5.5124 -0.0100899 6.39678 0.246975 7.23253C0.504041 8.06827 0.953628 8.83206 1.5596 9.46251C2.16558 10.093 2.91104 10.5725 3.73606 10.8626C4.56109 11.1526 5.44268 11.2451 6.30996 11.1326C7.17725 11.0202 8.00605 10.7058 8.72974 10.2149L12.1848 13.6664C12.2808 13.7694 12.3965 13.852 12.5251 13.9093C12.6537 13.9666 12.7925 13.9974 12.9332 13.9998C13.074 14.0023 13.2138 13.9764 13.3443 13.9237C13.4749 13.871 13.5934 13.7926 13.693 13.693C13.7925 13.5935 13.871 13.475 13.9237 13.3445C13.9764 13.214 14.0023 13.0742 13.9998 12.9335C13.9974 12.7928 13.9665 12.654 13.9093 12.5254C13.852 12.3969 13.7694 12.2811 13.6664 12.1852L10.2141 8.73087C10.7852 7.89045 11.1164 6.91029 11.1721 5.89576C11.2278 4.88124 11.0058 3.87073 10.5301 2.97288C10.0543 2.07504 9.34278 1.32383 8.47197 0.800027C7.60116 0.27622 6.60402 -0.000368269 5.58775 3.68007e-07ZM2.09354 5.58954C2.09354 4.66302 2.46168 3.77444 3.11697 3.11929C3.77226 2.46414 4.66103 2.09608 5.58775 2.09608C6.51447 2.09608 7.40324 2.46414 8.05853 3.11929C8.71382 3.77444 9.08196 4.66302 9.08196 5.58954C9.08196 6.51607 8.71382 7.40464 8.05853 8.0598C7.40324 8.71495 6.51447 9.08301 5.58775 9.08301C4.66103 9.08301 3.77226 8.71495 3.11697 8.0598C2.46168 7.40464 2.09354 6.51607 2.09354 5.58954Z" fill="#9E9E9E"/>
</svg>
